<svg width="300" height="76" viewBox="0 0 300 76" fill="none" xmlns="http://www.w3.org/2000/svg">
<path d="M18.7 44.45H15.6L0.8 22.5H5.15L14.35 36.15L17.1 40.25H17.4L20.1 36.15L29.25 22.5H33.55L18.7 44.45ZM18.95 56H15.35V41.8H18.95V56ZM48.5219 56.5C45.8552 56.5 43.5052 55.95 41.4719 54.85C39.4719 53.75 37.9052 52.2333 36.7719 50.3C35.6719 48.3667 35.1219 46.15 35.1219 43.65C35.1219 41.15 35.6719 38.9333 36.7719 37C37.9052 35.0667 39.4719 33.55 41.4719 32.45C43.5052 31.35 45.8552 30.8 48.5219 30.8C51.2552 30.8 53.6219 31.35 55.6219 32.45C57.6219 33.55 59.1719 35.0667 60.2719 37C61.4052 38.9333 61.9719 41.15 61.9719 43.65C61.9719 46.15 61.4052 48.3667 60.2719 50.3C59.1719 52.2333 57.6219 53.75 55.6219 54.85C53.6219 55.95 51.2552 56.5 48.5219 56.5ZM48.5219 53.3C51.9552 53.3 54.4719 52.45 56.0719 50.75C57.6719 49.0167 58.4719 46.65 58.4719 43.65C58.4719 40.65 57.6719 38.3 56.0719 36.6C54.4719 34.8667 51.9552 34 48.5219 34C45.1552 34 42.6552 34.8667 41.0219 36.6C39.4219 38.3 38.6219 40.65 38.6219 43.65C38.6219 46.65 39.4219 49.0167 41.0219 50.75C42.6552 52.45 45.1552 53.3 48.5219 53.3ZM77.0453 56.5C74.712 56.5 72.762 56.0167 71.1953 55.05C69.662 54.05 68.4953 52.7333 67.6953 51.1C66.9286 49.4667 66.5453 47.6833 66.5453 45.75V31.3H70.0953V45.2C70.0953 47.7333 70.7453 49.7167 72.0453 51.15C73.3453 52.5833 75.4286 53.3 78.2953 53.3C81.3286 53.3 83.612 52.4333 85.1453 50.7C86.712 48.9333 87.4953 46.4667 87.4953 43.3L88.4453 43.25V48.3H87.5953C87.3286 49.7 86.7453 51.0167 85.8453 52.25C84.9786 53.4833 83.812 54.5 82.3453 55.3C80.8786 56.1 79.112 56.5 77.0453 56.5ZM91.0453 56H87.8453V48.2L87.4953 47.95V31.3H91.0453V56ZM100.568 56H97.0176V31.3H100.218V38.25L100.568 38.5V56ZM100.568 42.6H99.5676V38.05H100.468C100.701 36.7167 101.168 35.5 101.868 34.4C102.601 33.3 103.568 32.4333 104.768 31.8C105.968 31.1333 107.434 30.8 109.168 30.8C111.068 30.8 112.618 31.2167 113.818 32.05C115.051 32.8833 115.951 33.9667 116.518 35.3C117.084 36.6333 117.368 38.0667 117.368 39.6V42.05H113.818V40.15C113.818 38.05 113.351 36.4833 112.418 35.45C111.484 34.4167 109.934 33.9 107.768 33.9C105.268 33.9 103.434 34.65 102.268 36.15C101.134 37.65 100.568 39.8 100.568 42.6ZM137.03 56H133.48V22.5H138.33L149.58 44.35L152.53 50.55H152.78L155.68 44.35L166.88 22.5H171.78V56H168.23V32.4L168.33 27.9H168.03L165.93 32.4L154.78 54H150.48L139.33 32.4L137.18 27.9H136.93L137.03 32.4V56ZM189.819 56.5C187.152 56.5 184.802 55.95 182.769 54.85C180.769 53.75 179.202 52.2333 178.069 50.3C176.969 48.3667 176.419 46.15 176.419 43.65C176.419 41.15 176.969 38.9333 178.069 37C179.202 35.0667 180.769 33.55 182.769 32.45C184.802 31.35 187.152 30.8 189.819 30.8C192.552 30.8 194.919 31.35 196.919 32.45C198.919 33.55 200.469 35.0667 201.569 37C202.702 38.9333 203.269 41.15 203.269 43.65C203.269 46.15 202.702 48.3667 201.569 50.3C200.469 52.2333 198.919 53.75 196.919 54.85C194.919 55.95 192.552 56.5 189.819 56.5ZM189.819 53.3C193.252 53.3 195.769 52.45 197.369 50.75C198.969 49.0167 199.769 46.65 199.769 43.65C199.769 40.65 198.969 38.3 197.369 36.6C195.769 34.8667 193.252 34 189.819 34C186.452 34 183.952 34.8667 182.319 36.6C180.719 38.3 179.919 40.65 179.919 43.65C179.919 46.65 180.719 49.0167 182.319 50.75C183.952 52.45 186.452 53.3 189.819 53.3ZM222.042 56.5C219.276 56.5 216.959 55.8167 215.092 54.45C213.259 53.0833 212.042 51.1667 211.442 48.7H210.392L210.592 44.05H211.542C211.542 45.9833 211.926 47.65 212.692 49.05C213.492 50.4167 214.609 51.4667 216.042 52.2C217.476 52.9 219.176 53.25 221.142 53.25C223.142 53.25 224.859 52.95 226.292 52.35C227.726 51.7167 228.826 50.7167 229.592 49.35C230.359 47.95 230.742 46.05 230.742 43.65C230.742 41.25 230.342 39.3667 229.542 38C228.776 36.6 227.676 35.6 226.242 35C224.842 34.4 223.192 34.1 221.292 34.1C218.159 34.1 215.742 34.9333 214.042 36.6C212.376 38.2333 211.542 40.5667 211.542 43.6H210.592V38.2H211.742C212.309 36.0667 213.476 34.3 215.242 32.9C217.009 31.5 219.376 30.8 222.342 30.8C224.942 30.8 227.126 31.35 228.892 32.45C230.659 33.55 232.009 35.0667 232.942 37C233.876 38.9333 234.342 41.15 234.342 43.65C234.342 46.15 233.876 48.3667 232.942 50.3C232.009 52.2333 230.626 53.75 228.792 54.85C226.992 55.95 224.742 56.5 222.042 56.5ZM211.192 56H207.992V22.5H211.542V47.25L211.192 47.9V56ZM242.255 56H238.705V31.3H242.255V56ZM242.255 28.15H238.705V22.5H242.255V28.15ZM251.777 56H248.227V22.5H251.777V56ZM279.598 56H276.398V49.25L276.148 49.05V40.7C276.148 38.3 275.581 36.5833 274.448 35.55C273.315 34.5167 271.381 34 268.648 34C266.015 34 263.998 34.5 262.598 35.5C261.231 36.4667 260.548 38.05 260.548 40.25V40.45H256.998V40.25C256.998 38.4833 257.465 36.9 258.398 35.5C259.331 34.0667 260.681 32.9333 262.448 32.1C264.215 31.2333 266.365 30.8 268.898 30.8C271.398 30.8 273.431 31.2333 274.998 32.1C276.598 32.9667 277.765 34.1333 278.498 35.6C279.231 37.0667 279.598 38.7167 279.598 40.55V56ZM264.598 56.5C262.165 56.5 260.198 55.95 258.698 54.85C257.198 53.7167 256.448 52.1667 256.448 50.2C256.448 48.8333 256.781 47.7333 257.448 46.9C258.148 46.0333 259.098 45.3667 260.298 44.9C261.498 44.4333 262.865 44.1 264.398 43.9L276.648 42.55V44.9L265.498 46.15C263.631 46.3167 262.248 46.6667 261.348 47.2C260.448 47.7333 259.998 48.65 259.998 49.95C259.998 51.1833 260.431 52.1333 261.298 52.8C262.165 53.4333 263.531 53.75 265.398 53.75C267.431 53.75 269.248 53.45 270.848 52.85C272.448 52.2167 273.731 51.2667 274.698 50C275.665 48.7333 276.148 47.1167 276.148 45.15L276.848 45.4V49.35H276.148C275.415 51.6167 274.031 53.3833 271.998 54.65C269.965 55.8833 267.498 56.5 264.598 56.5Z" fill="black"/>
<line x1="123.75" y1="-3.27835e-08" x2="123.75" y2="71" stroke="black" stroke-width="1.5"/>
</svg>
