<svg width="23" height="22" viewBox="0 0 23 22" fill="none" xmlns="http://www.w3.org/2000/svg">
<path d="M21.7006 15.9201V18.9201C21.7017 19.1986 21.6447 19.4743 21.5331 19.7294C21.4216 19.9846 21.2579 20.2137 21.0527 20.402C20.8475 20.5902 20.6052 20.7336 20.3414 20.8228C20.0775 20.912 19.798 20.9452 19.5206 20.9201C16.4435 20.5857 13.4876 19.5342 10.8906 17.8501C8.47444 16.3148 6.42595 14.2663 4.89062 11.8501C3.20059 9.2413 2.14886 6.27109 1.82062 3.1801C1.79563 2.90356 1.82849 2.62486 1.91712 2.36172C2.00574 2.09859 2.14819 1.85679 2.33538 1.65172C2.52258 1.44665 2.75042 1.28281 3.00441 1.17062C3.25839 1.05843 3.53296 1.00036 3.81062 1.0001H6.81062C7.29592 0.995321 7.76641 1.16718 8.13438 1.48363C8.50235 1.80008 8.74269 2.23954 8.81062 2.7201C8.93724 3.68016 9.17207 4.62282 9.51062 5.5301C9.64516 5.88802 9.67428 6.27701 9.59452 6.65098C9.51477 7.02494 9.32948 7.36821 9.06062 7.6401L7.79062 8.9101C9.21417 11.4136 11.2871 13.4865 13.7906 14.9101L15.0606 13.6401C15.3325 13.3712 15.6758 13.1859 16.0497 13.1062C16.4237 13.0264 16.8127 13.0556 17.1706 13.1901C18.0779 13.5286 19.0206 13.7635 19.9806 13.8901C20.4664 13.9586 20.91 14.2033 21.2271 14.5776C21.5443 14.9519 21.7128 15.4297 21.7006 15.9201Z" stroke="black" stroke-width="2" stroke-linecap="round" stroke-linejoin="round"/>
</svg>
